<mxfile host="Electron" agent="Mozilla/5.0 (Windows NT 10.0; Win64; x64) AppleWebKit/537.36 (KHTML, like Gecko) draw.io/24.7.17 Chrome/128.0.6613.36 Electron/32.0.1 Safari/537.36" version="24.7.17">
  <diagram name="Page-1" id="FKfCHhA4ogr4LMsB9OW9">
    <mxGraphModel dx="951" dy="404" grid="1" gridSize="10" guides="1" tooltips="1" connect="1" arrows="1" fold="1" page="1" pageScale="1" pageWidth="1400" pageHeight="850" math="0" shadow="0">
      <root>
        <mxCell id="0" />
        <mxCell id="1" parent="0" />
        <mxCell id="9n4CZVubbMvw4Wd5ldIc-53" value="USER" style="swimlane;fontStyle=0;childLayout=stackLayout;horizontal=1;startSize=30;horizontalStack=0;resizeParent=1;resizeParentMax=0;resizeLast=0;collapsible=1;marginBottom=0;whiteSpace=wrap;html=1;labelBackgroundColor=none;fillColor=#09555B;strokeColor=#BAC8D3;fontColor=#EEEEEE;movable=1;resizable=1;rotatable=1;deletable=1;editable=1;locked=0;connectable=1;" vertex="1" parent="1">
          <mxGeometry x="480" y="100" width="400" height="1080" as="geometry" />
        </mxCell>
        <mxCell id="9n4CZVubbMvw4Wd5ldIc-54" value="&lt;b&gt;Administration:&lt;/b&gt;" style="text;strokeColor=none;fillColor=none;align=left;verticalAlign=middle;spacingLeft=4;spacingRight=4;overflow=hidden;points=[[0,0.5],[1,0.5]];portConstraint=eastwest;rotatable=1;whiteSpace=wrap;html=1;labelBackgroundColor=none;fontColor=#EEEEEE;movable=1;resizable=1;deletable=1;editable=1;locked=0;connectable=1;" vertex="1" parent="9n4CZVubbMvw4Wd5ldIc-53">
          <mxGeometry y="30" width="400" height="30" as="geometry" />
        </mxCell>
        <mxCell id="9n4CZVubbMvw4Wd5ldIc-55" value="&lt;span style=&quot;white-space: pre;&quot;&gt;&#x9;&lt;/span&gt;&lt;b&gt;&lt;font face=&quot;Courier New&quot;&gt;get all users&lt;/font&gt;&lt;/b&gt;: fetches all users&lt;div&gt;&lt;span style=&quot;white-space: pre;&quot;&gt;&#x9;&lt;/span&gt;&lt;/div&gt;&lt;div&gt;&lt;span style=&quot;white-space: pre;&quot;&gt;&#x9;&lt;/span&gt;=&amp;gt;&amp;nbsp;&lt;span style=&quot;background-color: initial;&quot;&gt;GET /users&lt;/span&gt;&lt;/div&gt;" style="text;strokeColor=none;fillColor=none;align=left;verticalAlign=middle;spacingLeft=4;spacingRight=4;overflow=hidden;points=[[0,0.5],[1,0.5]];portConstraint=eastwest;rotatable=1;whiteSpace=wrap;html=1;labelBackgroundColor=none;fontColor=#EEEEEE;fontFamily=Helvetica;movable=1;resizable=1;deletable=1;editable=1;locked=0;connectable=1;" vertex="1" parent="9n4CZVubbMvw4Wd5ldIc-53">
          <mxGeometry y="60" width="400" height="80" as="geometry" />
        </mxCell>
        <mxCell id="9n4CZVubbMvw4Wd5ldIc-56" value="&lt;span style=&quot;white-space: pre;&quot;&gt;&#x9;&lt;/span&gt;&lt;b&gt;&lt;font face=&quot;Courier New&quot;&gt;get a user&lt;/font&gt;&lt;/b&gt;: fetches a user by ID&lt;div&gt;&lt;br&gt;&lt;/div&gt;&lt;div&gt;&lt;span style=&quot;white-space: pre;&quot;&gt;&#x9;&lt;/span&gt;=&amp;gt; GET /users/:id&lt;/div&gt;" style="text;strokeColor=none;fillColor=none;align=left;verticalAlign=middle;spacingLeft=4;spacingRight=4;overflow=hidden;points=[[0,0.5],[1,0.5]];portConstraint=eastwest;rotatable=1;whiteSpace=wrap;html=1;labelBackgroundColor=none;fontColor=#EEEEEE;fontFamily=Helvetica;movable=1;resizable=1;deletable=1;editable=1;locked=0;connectable=1;" vertex="1" parent="9n4CZVubbMvw4Wd5ldIc-53">
          <mxGeometry y="140" width="400" height="80" as="geometry" />
        </mxCell>
        <mxCell id="9n4CZVubbMvw4Wd5ldIc-57" value="&lt;span style=&quot;white-space: pre;&quot;&gt;&#x9;&lt;/span&gt;&lt;b&gt;&lt;font face=&quot;Courier New&quot;&gt;create a user&lt;/font&gt;&lt;/b&gt;: creates a user document with required fields&lt;div&gt;&lt;br&gt;&lt;/div&gt;&lt;div&gt;&lt;span style=&quot;white-space: pre;&quot;&gt;&#x9;&lt;/span&gt;=&amp;gt; POST /users&lt;/div&gt;" style="text;strokeColor=none;fillColor=none;align=left;verticalAlign=middle;spacingLeft=4;spacingRight=4;overflow=hidden;points=[[0,0.5],[1,0.5]];portConstraint=eastwest;rotatable=1;whiteSpace=wrap;html=1;labelBackgroundColor=none;fontColor=#EEEEEE;fontFamily=Helvetica;movable=1;resizable=1;deletable=1;editable=1;locked=0;connectable=1;" vertex="1" parent="9n4CZVubbMvw4Wd5ldIc-53">
          <mxGeometry y="220" width="400" height="80" as="geometry" />
        </mxCell>
        <mxCell id="9n4CZVubbMvw4Wd5ldIc-58" value="&lt;span style=&quot;white-space: pre;&quot;&gt;&#x9;&lt;/span&gt;&lt;b&gt;&lt;font face=&quot;Courier New&quot;&gt;update a user&lt;/font&gt;&lt;/b&gt;: updates a user by ID, must include complete data for nested fields&lt;div&gt;&lt;br&gt;&lt;div&gt;&lt;span style=&quot;white-space: pre;&quot;&gt;&#x9;&lt;/span&gt;=&amp;gt; PATCH&amp;nbsp;&lt;span style=&quot;background-color: initial;&quot;&gt;&amp;nbsp;&lt;/span&gt;&lt;span style=&quot;background-color: initial;&quot;&gt;/users/:id&lt;/span&gt;&lt;/div&gt;&lt;/div&gt;" style="text;strokeColor=none;fillColor=none;align=left;verticalAlign=middle;spacingLeft=4;spacingRight=4;overflow=hidden;points=[[0,0.5],[1,0.5]];portConstraint=eastwest;rotatable=1;whiteSpace=wrap;html=1;labelBackgroundColor=none;fontColor=#EEEEEE;fontFamily=Helvetica;movable=1;resizable=1;deletable=1;editable=1;locked=0;connectable=1;" vertex="1" parent="9n4CZVubbMvw4Wd5ldIc-53">
          <mxGeometry y="300" width="400" height="80" as="geometry" />
        </mxCell>
        <mxCell id="9n4CZVubbMvw4Wd5ldIc-59" value="&lt;span style=&quot;white-space: pre;&quot;&gt;&#x9;&lt;/span&gt;&lt;b&gt;&lt;font face=&quot;Courier New&quot;&gt;delete a user&lt;/font&gt;&lt;/b&gt;: deletes a user&#39;s document by ID&lt;div&gt;&lt;br&gt;&lt;/div&gt;&lt;div&gt;&lt;span style=&quot;white-space: pre;&quot;&gt;&#x9;&lt;/span&gt;=&amp;gt; DELETE&amp;nbsp;&lt;span style=&quot;background-color: initial;&quot;&gt;&amp;nbsp;&lt;/span&gt;&lt;span style=&quot;background-color: initial;&quot;&gt;/users/:id&lt;/span&gt;&lt;/div&gt;" style="text;strokeColor=none;fillColor=none;align=left;verticalAlign=middle;spacingLeft=4;spacingRight=4;overflow=hidden;points=[[0,0.5],[1,0.5]];portConstraint=eastwest;rotatable=1;whiteSpace=wrap;html=1;labelBackgroundColor=none;fontColor=#EEEEEE;fontFamily=Helvetica;movable=1;resizable=1;deletable=1;editable=1;locked=0;connectable=1;" vertex="1" parent="9n4CZVubbMvw4Wd5ldIc-53">
          <mxGeometry y="380" width="400" height="80" as="geometry" />
        </mxCell>
        <mxCell id="9n4CZVubbMvw4Wd5ldIc-60" value="&lt;b&gt;All Users:&lt;/b&gt;" style="text;strokeColor=none;fillColor=none;align=left;verticalAlign=middle;spacingLeft=4;spacingRight=4;overflow=hidden;points=[[0,0.5],[1,0.5]];portConstraint=eastwest;rotatable=1;whiteSpace=wrap;html=1;labelBackgroundColor=none;fontColor=#EEEEEE;fontFamily=Helvetica;movable=1;resizable=1;deletable=1;editable=1;locked=0;connectable=1;" vertex="1" parent="9n4CZVubbMvw4Wd5ldIc-53">
          <mxGeometry y="460" width="400" height="30" as="geometry" />
        </mxCell>
        <mxCell id="9n4CZVubbMvw4Wd5ldIc-61" value="&lt;span style=&quot;white-space: pre;&quot;&gt;&#x9;&lt;/span&gt;&lt;b&gt;&lt;font face=&quot;Courier New&quot;&gt;update password&lt;/font&gt;&lt;/b&gt;: for authenticated users (JWT), needs current password&lt;div&gt;&lt;br&gt;&lt;/div&gt;&lt;div&gt;&lt;span style=&quot;white-space: pre;&quot;&gt;&#x9;&lt;/span&gt;=&amp;gt; PATCH /users/update-password&lt;/div&gt;" style="text;strokeColor=none;fillColor=none;align=left;verticalAlign=middle;spacingLeft=4;spacingRight=4;overflow=hidden;points=[[0,0.5],[1,0.5]];portConstraint=eastwest;rotatable=1;whiteSpace=wrap;html=1;labelBackgroundColor=none;fontColor=#EEEEEE;fontFamily=Helvetica;movable=1;resizable=1;deletable=1;editable=1;locked=0;connectable=1;" vertex="1" parent="9n4CZVubbMvw4Wd5ldIc-53">
          <mxGeometry y="490" width="400" height="80" as="geometry" />
        </mxCell>
        <mxCell id="9n4CZVubbMvw4Wd5ldIc-62" value="&lt;span style=&quot;white-space: pre;&quot;&gt;&#x9;&lt;/span&gt;&lt;b&gt;&lt;font face=&quot;Courier New&quot;&gt;update account&lt;/font&gt;&lt;/b&gt;: for authenticated&amp;nbsp;users (JWT), to update all except password&lt;div&gt;&lt;br&gt;&lt;/div&gt;&lt;div&gt;&lt;span style=&quot;white-space: pre;&quot;&gt;&#x9;&lt;/span&gt;=&amp;gt; PATCH /users/update-account&lt;/div&gt;" style="text;strokeColor=none;fillColor=none;align=left;verticalAlign=middle;spacingLeft=4;spacingRight=4;overflow=hidden;points=[[0,0.5],[1,0.5]];portConstraint=eastwest;rotatable=1;whiteSpace=wrap;html=1;labelBackgroundColor=none;fontColor=#EEEEEE;fontFamily=Helvetica;movable=1;resizable=1;deletable=1;editable=1;locked=0;connectable=1;" vertex="1" parent="9n4CZVubbMvw4Wd5ldIc-53">
          <mxGeometry y="570" width="400" height="80" as="geometry" />
        </mxCell>
        <mxCell id="9n4CZVubbMvw4Wd5ldIc-63" value="&lt;span style=&quot;white-space: pre;&quot;&gt;&#x9;&lt;/span&gt;&lt;b&gt;&lt;font face=&quot;Courier New&quot;&gt;delete account&lt;/font&gt;&lt;/b&gt;: for authenticated&amp;nbsp;users (JWT), to deactivate account&lt;div&gt;&lt;br&gt;&lt;/div&gt;&lt;div&gt;&lt;span style=&quot;white-space: pre;&quot;&gt;&#x9;&lt;/span&gt;=&amp;gt; DELETE /users/delete-account&lt;/div&gt;" style="text;strokeColor=none;fillColor=none;align=left;verticalAlign=middle;spacingLeft=4;spacingRight=4;overflow=hidden;points=[[0,0.5],[1,0.5]];portConstraint=eastwest;rotatable=1;whiteSpace=wrap;html=1;labelBackgroundColor=none;fontColor=#EEEEEE;fontFamily=Helvetica;movable=1;resizable=1;deletable=1;editable=1;locked=0;connectable=1;" vertex="1" parent="9n4CZVubbMvw4Wd5ldIc-53">
          <mxGeometry y="650" width="400" height="80" as="geometry" />
        </mxCell>
        <mxCell id="9n4CZVubbMvw4Wd5ldIc-64" value="&lt;b&gt;Public:&lt;/b&gt;" style="text;strokeColor=none;fillColor=none;align=left;verticalAlign=middle;spacingLeft=4;spacingRight=4;overflow=hidden;points=[[0,0.5],[1,0.5]];portConstraint=eastwest;rotatable=1;whiteSpace=wrap;html=1;shadow=1;labelBackgroundColor=none;fontColor=#EEEEEE;fontFamily=Helvetica;movable=1;resizable=1;deletable=1;editable=1;locked=0;connectable=1;" vertex="1" parent="9n4CZVubbMvw4Wd5ldIc-53">
          <mxGeometry y="730" width="400" height="30" as="geometry" />
        </mxCell>
        <mxCell id="9n4CZVubbMvw4Wd5ldIc-65" value="&lt;span style=&quot;white-space: pre;&quot;&gt;&#x9;&lt;/span&gt;&lt;b&gt;&lt;font face=&quot;Courier New&quot;&gt;login&lt;/font&gt;&lt;/b&gt;: log a user in using phone number and temp code (sent via SMS) or using email and password ??????????&lt;div&gt;&lt;br&gt;&lt;/div&gt;&lt;div&gt;&lt;span style=&quot;white-space: pre;&quot;&gt;&#x9;&lt;/span&gt;=&amp;gt; POST /users/login&lt;br&gt;&lt;/div&gt;" style="text;strokeColor=none;fillColor=none;align=left;verticalAlign=middle;spacingLeft=4;spacingRight=4;overflow=hidden;points=[[0,0.5],[1,0.5]];portConstraint=eastwest;rotatable=1;whiteSpace=wrap;html=1;labelBackgroundColor=none;fontColor=#EEEEEE;fontFamily=Helvetica;movable=1;resizable=1;deletable=1;editable=1;locked=0;connectable=1;" vertex="1" parent="9n4CZVubbMvw4Wd5ldIc-53">
          <mxGeometry y="760" width="400" height="80" as="geometry" />
        </mxCell>
        <mxCell id="9n4CZVubbMvw4Wd5ldIc-66" value="&lt;span style=&quot;white-space: pre;&quot;&gt;&#x9;&lt;/span&gt;&lt;b&gt;&lt;font face=&quot;Courier New&quot;&gt;sign up&lt;/font&gt;&lt;/b&gt;: sign a user up either by phone (SMS verification) or email and password (email verification) ?????????&lt;div&gt;&lt;br&gt;&lt;/div&gt;&lt;div&gt;&lt;span style=&quot;white-space: pre;&quot;&gt;&#x9;&lt;/span&gt;=&amp;gt; POST /users/sign-up&lt;br&gt;&lt;/div&gt;" style="text;strokeColor=none;fillColor=none;align=left;verticalAlign=middle;spacingLeft=4;spacingRight=4;overflow=hidden;points=[[0,0.5],[1,0.5]];portConstraint=eastwest;rotatable=1;whiteSpace=wrap;html=1;labelBackgroundColor=none;fontColor=#EEEEEE;fontFamily=Helvetica;movable=1;resizable=1;deletable=1;editable=1;locked=0;connectable=1;" vertex="1" parent="9n4CZVubbMvw4Wd5ldIc-53">
          <mxGeometry y="840" width="400" height="80" as="geometry" />
        </mxCell>
        <mxCell id="9n4CZVubbMvw4Wd5ldIc-67" value="&lt;span style=&quot;white-space: pre;&quot;&gt;&#x9;&lt;/span&gt;&lt;b&gt;&lt;font face=&quot;Courier New&quot;&gt;forgot password&lt;/font&gt;&lt;/b&gt;: receives an email and emails a reset password link&lt;div&gt;&lt;br&gt;&lt;/div&gt;&lt;div&gt;&lt;span style=&quot;white-space: pre;&quot;&gt;&#x9;&lt;/span&gt;=&amp;gt; POST /users/forgot-password&lt;/div&gt;" style="text;strokeColor=none;fillColor=none;align=left;verticalAlign=middle;spacingLeft=4;spacingRight=4;overflow=hidden;points=[[0,0.5],[1,0.5]];portConstraint=eastwest;rotatable=1;whiteSpace=wrap;html=1;shadow=1;labelBackgroundColor=none;fontColor=#EEEEEE;fontFamily=Helvetica;movable=1;resizable=1;deletable=1;editable=1;locked=0;connectable=1;" vertex="1" parent="9n4CZVubbMvw4Wd5ldIc-53">
          <mxGeometry y="920" width="400" height="80" as="geometry" />
        </mxCell>
        <mxCell id="9n4CZVubbMvw4Wd5ldIc-68" value="&lt;span style=&quot;white-space: pre;&quot;&gt;&#x9;&lt;/span&gt;&lt;b&gt;&lt;font face=&quot;Courier New&quot;&gt;reset password&lt;/font&gt;&lt;/b&gt;: resets password by providing the proper token&lt;div&gt;&lt;br&gt;&lt;/div&gt;&lt;div&gt;&lt;span style=&quot;white-space: pre;&quot;&gt;&#x9;&lt;/span&gt;=&amp;gt; PATCH /users/reset-password/:token&lt;/div&gt;" style="text;strokeColor=none;fillColor=none;align=left;verticalAlign=middle;spacingLeft=4;spacingRight=4;overflow=hidden;points=[[0,0.5],[1,0.5]];portConstraint=eastwest;rotatable=1;whiteSpace=wrap;html=1;labelBackgroundColor=none;fontColor=#EEEEEE;fontFamily=Helvetica;movable=1;resizable=1;deletable=1;editable=1;locked=0;connectable=1;" vertex="1" parent="9n4CZVubbMvw4Wd5ldIc-53">
          <mxGeometry y="1000" width="400" height="80" as="geometry" />
        </mxCell>
        <mxCell id="9n4CZVubbMvw4Wd5ldIc-69" value="VISIT" style="swimlane;fontStyle=0;childLayout=stackLayout;horizontal=1;startSize=30;horizontalStack=0;resizeParent=1;resizeParentMax=0;resizeLast=0;collapsible=1;marginBottom=0;whiteSpace=wrap;html=1;labelBackgroundColor=none;fillColor=#09555B;strokeColor=#BAC8D3;fontColor=#EEEEEE;movable=1;resizable=1;rotatable=1;deletable=1;editable=1;locked=0;connectable=1;" vertex="1" parent="1">
          <mxGeometry x="960" y="100" width="400" height="1460" as="geometry">
            <mxRectangle x="500" y="180" width="60" height="30" as="alternateBounds" />
          </mxGeometry>
        </mxCell>
        <mxCell id="9n4CZVubbMvw4Wd5ldIc-70" value="&lt;b&gt;Administration:&lt;/b&gt;" style="text;strokeColor=none;fillColor=none;align=left;verticalAlign=middle;spacingLeft=4;spacingRight=4;overflow=hidden;points=[[0,0.5],[1,0.5]];portConstraint=eastwest;rotatable=1;whiteSpace=wrap;html=1;labelBackgroundColor=none;fontColor=#EEEEEE;movable=1;resizable=1;deletable=1;editable=1;locked=0;connectable=1;" vertex="1" parent="9n4CZVubbMvw4Wd5ldIc-69">
          <mxGeometry y="30" width="400" height="30" as="geometry" />
        </mxCell>
        <mxCell id="9n4CZVubbMvw4Wd5ldIc-71" value="&lt;span style=&quot;white-space: pre;&quot;&gt;&#x9;&lt;/span&gt;&lt;b&gt;&lt;font face=&quot;Courier New&quot;&gt;get all visits&lt;/font&gt;&lt;/b&gt;: fetches all visits (closed or open)&lt;div&gt;&lt;br&gt;&lt;/div&gt;&lt;div&gt;&lt;span style=&quot;white-space: pre;&quot;&gt;&#x9;&lt;/span&gt;=&amp;gt; GET /visits&lt;/div&gt;" style="text;strokeColor=none;fillColor=none;align=left;verticalAlign=middle;spacingLeft=4;spacingRight=4;overflow=hidden;points=[[0,0.5],[1,0.5]];portConstraint=eastwest;rotatable=1;whiteSpace=wrap;html=1;labelBackgroundColor=none;fontColor=#EEEEEE;fontFamily=Helvetica;movable=1;resizable=1;deletable=1;editable=1;locked=0;connectable=1;" vertex="1" parent="9n4CZVubbMvw4Wd5ldIc-69">
          <mxGeometry y="60" width="400" height="80" as="geometry" />
        </mxCell>
        <mxCell id="9n4CZVubbMvw4Wd5ldIc-72" value="&lt;span style=&quot;white-space: pre;&quot;&gt;&#x9;&lt;/span&gt;&lt;b&gt;&lt;font face=&quot;Courier New&quot;&gt;get a visit&lt;/font&gt;&lt;/b&gt;: fetches a visit by ID&lt;div&gt;&lt;br&gt;&lt;/div&gt;&lt;div&gt;&lt;span style=&quot;white-space: pre;&quot;&gt;&#x9;&lt;/span&gt;=&amp;gt; GET /visits/:id&lt;/div&gt;" style="text;strokeColor=none;fillColor=none;align=left;verticalAlign=middle;spacingLeft=4;spacingRight=4;overflow=hidden;points=[[0,0.5],[1,0.5]];portConstraint=eastwest;rotatable=1;whiteSpace=wrap;html=1;labelBackgroundColor=none;fontColor=#EEEEEE;fontFamily=Helvetica;movable=1;resizable=1;deletable=1;editable=1;locked=0;connectable=1;" vertex="1" parent="9n4CZVubbMvw4Wd5ldIc-69">
          <mxGeometry y="140" width="400" height="80" as="geometry" />
        </mxCell>
        <mxCell id="9n4CZVubbMvw4Wd5ldIc-73" value="&lt;span style=&quot;white-space: pre;&quot;&gt;&#x9;&lt;/span&gt;&lt;b&gt;&lt;font face=&quot;Courier New&quot;&gt;create a visit&lt;/font&gt;&lt;/b&gt;: creates a visit document with required fields&lt;div&gt;&lt;br&gt;&lt;/div&gt;&lt;div&gt;&lt;span style=&quot;white-space: pre;&quot;&gt;&#x9;&lt;/span&gt;=&amp;gt; POST&amp;nbsp;&lt;span style=&quot;background-color: initial;&quot;&gt;/visits/:id&lt;/span&gt;&lt;/div&gt;" style="text;strokeColor=none;fillColor=none;align=left;verticalAlign=middle;spacingLeft=4;spacingRight=4;overflow=hidden;points=[[0,0.5],[1,0.5]];portConstraint=eastwest;rotatable=1;whiteSpace=wrap;html=1;labelBackgroundColor=none;fontColor=#EEEEEE;fontFamily=Helvetica;movable=1;resizable=1;deletable=1;editable=1;locked=0;connectable=1;" vertex="1" parent="9n4CZVubbMvw4Wd5ldIc-69">
          <mxGeometry y="220" width="400" height="80" as="geometry" />
        </mxCell>
        <mxCell id="9n4CZVubbMvw4Wd5ldIc-74" value="&lt;span style=&quot;white-space: pre;&quot;&gt;&#x9;&lt;/span&gt;&lt;b&gt;&lt;font face=&quot;Courier New&quot;&gt;update a visit&lt;/font&gt;&lt;/b&gt;: updates a visit by ID&lt;div&gt;&lt;br&gt;&lt;/div&gt;&lt;div&gt;&lt;span style=&quot;white-space: pre;&quot;&gt;&#x9;&lt;/span&gt;=&amp;gt; PATCH&amp;nbsp;&lt;span style=&quot;background-color: initial;&quot;&gt;/visits/:id&lt;/span&gt;&lt;/div&gt;" style="text;strokeColor=none;fillColor=none;align=left;verticalAlign=middle;spacingLeft=4;spacingRight=4;overflow=hidden;points=[[0,0.5],[1,0.5]];portConstraint=eastwest;rotatable=1;whiteSpace=wrap;html=1;labelBackgroundColor=none;fontColor=#EEEEEE;fontFamily=Helvetica;movable=1;resizable=1;deletable=1;editable=1;locked=0;connectable=1;" vertex="1" parent="9n4CZVubbMvw4Wd5ldIc-69">
          <mxGeometry y="300" width="400" height="80" as="geometry" />
        </mxCell>
        <mxCell id="9n4CZVubbMvw4Wd5ldIc-75" value="&lt;span style=&quot;white-space: pre;&quot;&gt;&#x9;&lt;/span&gt;&lt;b&gt;&lt;font face=&quot;Courier New&quot;&gt;delete a visit&lt;/font&gt;&lt;/b&gt;: deletes a visit document by ID&lt;div&gt;&lt;br&gt;&lt;/div&gt;&lt;div&gt;&lt;span style=&quot;white-space: pre;&quot;&gt;&#x9;&lt;/span&gt;=&amp;gt; DELETE&amp;nbsp;&lt;span style=&quot;background-color: initial;&quot;&gt;/visits/:id&lt;/span&gt;&lt;/div&gt;" style="text;strokeColor=none;fillColor=none;align=left;verticalAlign=middle;spacingLeft=4;spacingRight=4;overflow=hidden;points=[[0,0.5],[1,0.5]];portConstraint=eastwest;rotatable=1;whiteSpace=wrap;html=1;labelBackgroundColor=none;fontColor=#EEEEEE;fontFamily=Helvetica;movable=1;resizable=1;deletable=1;editable=1;locked=0;connectable=1;" vertex="1" parent="9n4CZVubbMvw4Wd5ldIc-69">
          <mxGeometry y="380" width="400" height="80" as="geometry" />
        </mxCell>
        <mxCell id="9n4CZVubbMvw4Wd5ldIc-76" value="&lt;b&gt;Doctor:&lt;/b&gt;" style="text;strokeColor=none;fillColor=none;align=left;verticalAlign=middle;spacingLeft=4;spacingRight=4;overflow=hidden;points=[[0,0.5],[1,0.5]];portConstraint=eastwest;rotatable=1;whiteSpace=wrap;html=1;labelBackgroundColor=none;fontColor=#EEEEEE;fontFamily=Helvetica;movable=1;resizable=1;deletable=1;editable=1;locked=0;connectable=1;" vertex="1" parent="9n4CZVubbMvw4Wd5ldIc-69">
          <mxGeometry y="460" width="400" height="30" as="geometry" />
        </mxCell>
        <mxCell id="9n4CZVubbMvw4Wd5ldIc-77" value="&lt;span style=&quot;white-space: pre;&quot;&gt;&#x9;&lt;/span&gt;&lt;b&gt;&lt;font face=&quot;Courier New&quot;&gt;update a prescription on a visit&lt;/font&gt;&lt;/b&gt;: updates a visit&#39;s prescription by the visit ID&lt;div&gt;&lt;br&gt;&lt;/div&gt;&lt;div&gt;&lt;span style=&quot;white-space: pre;&quot;&gt;&#x9;&lt;/span&gt;=&amp;gt; PATCH /visits/:id/prescription&lt;/div&gt;" style="text;strokeColor=none;fillColor=none;align=left;verticalAlign=middle;spacingLeft=4;spacingRight=4;overflow=hidden;points=[[0,0.5],[1,0.5]];portConstraint=eastwest;rotatable=1;whiteSpace=wrap;html=1;labelBackgroundColor=none;fontColor=#EEEEEE;fontFamily=Helvetica;movable=1;resizable=1;deletable=1;editable=1;locked=0;connectable=1;" vertex="1" parent="9n4CZVubbMvw4Wd5ldIc-69">
          <mxGeometry y="490" width="400" height="80" as="geometry" />
        </mxCell>
        <mxCell id="9n4CZVubbMvw4Wd5ldIc-78" value="&lt;span style=&quot;white-space: pre;&quot;&gt;&#x9;&lt;/span&gt;&lt;b&gt;&lt;font face=&quot;Courier New&quot;&gt;delete a prescription&amp;nbsp;on a visit&lt;/font&gt;&lt;/b&gt;: deletes a visit&#39;s prescription by the visit ID&lt;div&gt;&lt;br&gt;&lt;/div&gt;&lt;div&gt;&lt;span style=&quot;white-space: pre;&quot;&gt;&#x9;&lt;/span&gt;=&amp;gt; DELETE&amp;nbsp;&lt;span style=&quot;background-color: initial;&quot;&gt;/visits/:id/prescription&lt;/span&gt;&lt;/div&gt;" style="text;strokeColor=none;fillColor=none;align=left;verticalAlign=middle;spacingLeft=4;spacingRight=4;overflow=hidden;points=[[0,0.5],[1,0.5]];portConstraint=eastwest;rotatable=1;whiteSpace=wrap;html=1;labelBackgroundColor=none;fontColor=#EEEEEE;fontFamily=Helvetica;movable=1;resizable=1;deletable=1;editable=1;locked=0;connectable=1;" vertex="1" parent="9n4CZVubbMvw4Wd5ldIc-69">
          <mxGeometry y="570" width="400" height="80" as="geometry" />
        </mxCell>
        <mxCell id="9n4CZVubbMvw4Wd5ldIc-79" value="&lt;b&gt;Doctor / Secretary:&lt;/b&gt;" style="text;strokeColor=none;fillColor=none;align=left;verticalAlign=middle;spacingLeft=4;spacingRight=4;overflow=hidden;points=[[0,0.5],[1,0.5]];portConstraint=eastwest;rotatable=1;whiteSpace=wrap;html=1;labelBackgroundColor=none;fontColor=#EEEEEE;fontFamily=Helvetica;movable=1;resizable=1;deletable=1;editable=1;locked=0;connectable=1;" vertex="1" parent="9n4CZVubbMvw4Wd5ldIc-69">
          <mxGeometry y="650" width="400" height="30" as="geometry" />
        </mxCell>
        <mxCell id="9n4CZVubbMvw4Wd5ldIc-80" value="&lt;span style=&quot;white-space: pre;&quot;&gt;&#x9;&lt;/span&gt;&lt;b&gt;&lt;font face=&quot;Courier New&quot;&gt;get all visits&lt;/font&gt;&lt;/b&gt;: fetches all visits (closed / open) by the doctor ID&lt;div&gt;&lt;br&gt;&lt;/div&gt;&lt;div&gt;&lt;span style=&quot;white-space: pre;&quot;&gt;&#x9;&lt;/span&gt;=&amp;gt; GET /visits/doctor&lt;/div&gt;" style="text;strokeColor=none;fillColor=none;align=left;verticalAlign=middle;spacingLeft=4;spacingRight=4;overflow=hidden;points=[[0,0.5],[1,0.5]];portConstraint=eastwest;rotatable=1;whiteSpace=wrap;html=1;labelBackgroundColor=none;fontColor=#EEEEEE;fontFamily=Helvetica;movable=1;resizable=1;deletable=1;editable=1;locked=0;connectable=1;" vertex="1" parent="9n4CZVubbMvw4Wd5ldIc-69">
          <mxGeometry y="680" width="400" height="80" as="geometry" />
        </mxCell>
        <mxCell id="9n4CZVubbMvw4Wd5ldIc-81" value="&lt;span style=&quot;white-space: pre;&quot;&gt;&#x9;&lt;/span&gt;&lt;b&gt;&lt;font face=&quot;Courier New&quot;&gt;get all visits (today)&lt;/font&gt;&lt;/b&gt;: fetches all today&#39;s visits&lt;div&gt;&lt;br&gt;&lt;/div&gt;&lt;div&gt;&lt;span style=&quot;white-space: pre;&quot;&gt;&#x9;&lt;/span&gt;=&amp;gt;&amp;nbsp;&lt;span style=&quot;background-color: initial;&quot;&gt;GET /visits/doctor/today&lt;/span&gt;&lt;/div&gt;" style="text;strokeColor=none;fillColor=none;align=left;verticalAlign=middle;spacingLeft=4;spacingRight=4;overflow=hidden;points=[[0,0.5],[1,0.5]];portConstraint=eastwest;rotatable=1;whiteSpace=wrap;html=1;labelBackgroundColor=none;fontColor=#EEEEEE;fontFamily=Helvetica;movable=1;resizable=1;deletable=1;editable=1;locked=0;connectable=1;" vertex="1" parent="9n4CZVubbMvw4Wd5ldIc-69">
          <mxGeometry y="760" width="400" height="80" as="geometry" />
        </mxCell>
        <mxCell id="9n4CZVubbMvw4Wd5ldIc-82" value="&lt;span style=&quot;white-space: pre;&quot;&gt;&#x9;&lt;/span&gt;&lt;b&gt;&lt;font face=&quot;Courier New&quot;&gt;close a visit&lt;/font&gt;&lt;/b&gt;: updates a visit&#39;s close status to true by the visit ID (checks if the visit belongs to the doctor by ID)&lt;div&gt;&lt;br&gt;&lt;/div&gt;&lt;div&gt;&lt;span style=&quot;white-space: pre;&quot;&gt;&#x9;&lt;/span&gt;=&amp;gt; PATCH /visits/:id/doctor/close-visit&lt;/div&gt;" style="text;strokeColor=none;fillColor=none;align=left;verticalAlign=middle;spacingLeft=4;spacingRight=4;overflow=hidden;points=[[0,0.5],[1,0.5]];portConstraint=eastwest;rotatable=1;whiteSpace=wrap;html=1;labelBackgroundColor=none;fontColor=#EEEEEE;fontFamily=Helvetica;movable=1;resizable=1;deletable=1;editable=1;locked=0;connectable=1;" vertex="1" parent="9n4CZVubbMvw4Wd5ldIc-69">
          <mxGeometry y="840" width="400" height="80" as="geometry" />
        </mxCell>
        <mxCell id="9n4CZVubbMvw4Wd5ldIc-83" value="&lt;b&gt;Patient:&lt;/b&gt;" style="text;strokeColor=none;fillColor=none;align=left;verticalAlign=middle;spacingLeft=4;spacingRight=4;overflow=hidden;points=[[0,0.5],[1,0.5]];portConstraint=eastwest;rotatable=1;whiteSpace=wrap;html=1;labelBackgroundColor=none;fontColor=#EEEEEE;fontFamily=Helvetica;movable=1;resizable=1;deletable=1;editable=1;locked=0;connectable=1;" vertex="1" parent="9n4CZVubbMvw4Wd5ldIc-69">
          <mxGeometry y="920" width="400" height="30" as="geometry" />
        </mxCell>
        <mxCell id="9n4CZVubbMvw4Wd5ldIc-84" value="&lt;span style=&quot;white-space: pre;&quot;&gt;&#x9;&lt;/span&gt;&lt;b&gt;&lt;font face=&quot;Courier New&quot;&gt;get all my visits&lt;/font&gt;&lt;/b&gt;: fetches all visits (closed or open) by the patient ID&lt;div&gt;&lt;br&gt;&lt;/div&gt;&lt;div&gt;&lt;span style=&quot;white-space: pre;&quot;&gt;&#x9;&lt;/span&gt;=&amp;gt; GET /visits/patient&lt;/div&gt;" style="text;strokeColor=none;fillColor=none;align=left;verticalAlign=middle;spacingLeft=4;spacingRight=4;overflow=hidden;points=[[0,0.5],[1,0.5]];portConstraint=eastwest;rotatable=1;whiteSpace=wrap;html=1;labelBackgroundColor=none;fontColor=#EEEEEE;fontFamily=Helvetica;movable=1;resizable=1;deletable=1;editable=1;locked=0;connectable=1;" vertex="1" parent="9n4CZVubbMvw4Wd5ldIc-69">
          <mxGeometry y="950" width="400" height="80" as="geometry" />
        </mxCell>
        <mxCell id="9n4CZVubbMvw4Wd5ldIc-85" value="&lt;span style=&quot;white-space: pre;&quot;&gt;&#x9;&lt;/span&gt;&lt;b&gt;&lt;font face=&quot;Courier New&quot;&gt;get a visit&lt;/font&gt;&lt;/b&gt;: fetches a visit by ID and user ID&lt;div&gt;&lt;br&gt;&lt;/div&gt;&lt;div&gt;&lt;span style=&quot;white-space: pre;&quot;&gt;&#x9;&lt;/span&gt;=&amp;gt;&amp;nbsp;&lt;span style=&quot;background-color: initial;&quot;&gt;GET /visits/:id/patient&lt;/span&gt;&lt;/div&gt;" style="text;strokeColor=none;fillColor=none;align=left;verticalAlign=middle;spacingLeft=4;spacingRight=4;overflow=hidden;points=[[0,0.5],[1,0.5]];portConstraint=eastwest;rotatable=1;whiteSpace=wrap;html=1;labelBackgroundColor=none;fontColor=#EEEEEE;fontFamily=Helvetica;movable=1;resizable=1;deletable=1;editable=1;locked=0;connectable=1;" vertex="1" parent="9n4CZVubbMvw4Wd5ldIc-69">
          <mxGeometry y="1030" width="400" height="80" as="geometry" />
        </mxCell>
        <mxCell id="9n4CZVubbMvw4Wd5ldIc-86" value="&lt;span style=&quot;white-space: pre;&quot;&gt;&#x9;&lt;/span&gt;&lt;b&gt;&lt;font face=&quot;Courier New&quot;&gt;book a visit&lt;/font&gt;&lt;/b&gt;: books a visit (grabs doctor ID from the body and user ID from the JWT)&lt;div&gt;&lt;br&gt;&lt;/div&gt;&lt;div&gt;&lt;span style=&quot;white-space: pre;&quot;&gt;&#x9;&lt;/span&gt;=&amp;gt; POST&amp;nbsp;&lt;span style=&quot;background-color: initial;&quot;&gt;/visits/patient&lt;/span&gt;&lt;/div&gt;" style="text;strokeColor=none;fillColor=none;align=left;verticalAlign=middle;spacingLeft=4;spacingRight=4;overflow=hidden;points=[[0,0.5],[1,0.5]];portConstraint=eastwest;rotatable=1;whiteSpace=wrap;html=1;labelBackgroundColor=none;fontColor=#EEEEEE;fontFamily=Helvetica;movable=1;resizable=1;deletable=1;editable=1;locked=0;connectable=1;" vertex="1" parent="9n4CZVubbMvw4Wd5ldIc-69">
          <mxGeometry y="1110" width="400" height="80" as="geometry" />
        </mxCell>
        <mxCell id="9n4CZVubbMvw4Wd5ldIc-87" value="&lt;span style=&quot;white-space: pre;&quot;&gt;&#x9;&lt;/span&gt;&lt;b&gt;&lt;font face=&quot;Courier New&quot;&gt;update a visit&lt;/font&gt;&lt;/b&gt;: updates a visit by visit ID (owner&#39;s check)&lt;div&gt;&lt;br&gt;&lt;/div&gt;&lt;div&gt;&lt;span style=&quot;white-space: pre;&quot;&gt;&#x9;&lt;/span&gt;=&amp;gt; PATCH&amp;nbsp;&lt;span style=&quot;background-color: initial;&quot;&gt;/visits/:id/patient&lt;/span&gt;&lt;/div&gt;" style="text;strokeColor=none;fillColor=none;align=left;verticalAlign=middle;spacingLeft=4;spacingRight=4;overflow=hidden;points=[[0,0.5],[1,0.5]];portConstraint=eastwest;rotatable=1;whiteSpace=wrap;html=1;labelBackgroundColor=none;fontColor=#EEEEEE;fontFamily=Helvetica;movable=1;resizable=1;deletable=1;editable=1;locked=0;connectable=1;" vertex="1" parent="9n4CZVubbMvw4Wd5ldIc-69">
          <mxGeometry y="1190" width="400" height="80" as="geometry" />
        </mxCell>
        <mxCell id="9n4CZVubbMvw4Wd5ldIc-88" value="&lt;span style=&quot;white-space: pre;&quot;&gt;&#x9;&lt;/span&gt;&lt;b&gt;&lt;font face=&quot;Courier New&quot;&gt;delete a visit&lt;/font&gt;&lt;/b&gt;: deletes a visit by visit ID (owner&#39;s check)&lt;div&gt;&lt;br&gt;&lt;/div&gt;&lt;div&gt;&lt;span style=&quot;white-space: pre;&quot;&gt;&#x9;&lt;/span&gt;=&amp;gt; DELETE&amp;nbsp;&lt;span style=&quot;background-color: initial;&quot;&gt;/visits/:id/patient&lt;/span&gt;&lt;/div&gt;" style="text;strokeColor=none;fillColor=none;align=left;verticalAlign=middle;spacingLeft=4;spacingRight=4;overflow=hidden;points=[[0,0.5],[1,0.5]];portConstraint=eastwest;rotatable=1;whiteSpace=wrap;html=1;labelBackgroundColor=none;fontColor=#EEEEEE;fontFamily=Helvetica;movable=1;resizable=1;deletable=1;editable=1;locked=0;connectable=1;" vertex="1" parent="9n4CZVubbMvw4Wd5ldIc-69">
          <mxGeometry y="1270" width="400" height="80" as="geometry" />
        </mxCell>
        <mxCell id="9n4CZVubbMvw4Wd5ldIc-89" value="&lt;b&gt;Public:&lt;/b&gt;" style="text;strokeColor=none;fillColor=none;align=left;verticalAlign=middle;spacingLeft=4;spacingRight=4;overflow=hidden;points=[[0,0.5],[1,0.5]];portConstraint=eastwest;rotatable=1;whiteSpace=wrap;html=1;labelBackgroundColor=none;fontColor=#EEEEEE;fontFamily=Helvetica;movable=1;resizable=1;deletable=1;editable=1;locked=0;connectable=1;" vertex="1" parent="9n4CZVubbMvw4Wd5ldIc-69">
          <mxGeometry y="1350" width="400" height="30" as="geometry" />
        </mxCell>
        <mxCell id="9n4CZVubbMvw4Wd5ldIc-90" value="&lt;span style=&quot;white-space: pre;&quot;&gt;&#x9;&lt;/span&gt;&lt;b&gt;&lt;font face=&quot;Courier New&quot;&gt;get prescription&amp;nbsp;on a visit&lt;/font&gt;&lt;/b&gt;: fetches the prescription field of a visit by visit ID&lt;div&gt;&lt;br&gt;&lt;/div&gt;&lt;div&gt;&lt;span style=&quot;white-space: pre;&quot;&gt;&#x9;&lt;/span&gt;=&amp;gt; GET /visits/:id/prescription&lt;/div&gt;" style="text;strokeColor=none;fillColor=none;align=left;verticalAlign=middle;spacingLeft=4;spacingRight=4;overflow=hidden;points=[[0,0.5],[1,0.5]];portConstraint=eastwest;rotatable=1;whiteSpace=wrap;html=1;labelBackgroundColor=none;fontColor=#EEEEEE;fontFamily=Helvetica;movable=1;resizable=1;deletable=1;editable=1;locked=0;connectable=1;" vertex="1" parent="9n4CZVubbMvw4Wd5ldIc-69">
          <mxGeometry y="1380" width="400" height="80" as="geometry" />
        </mxCell>
        <mxCell id="9n4CZVubbMvw4Wd5ldIc-91" value="REVIEW" style="swimlane;fontStyle=0;childLayout=stackLayout;horizontal=1;startSize=30;horizontalStack=0;resizeParent=1;resizeParentMax=0;resizeLast=0;collapsible=1;marginBottom=0;whiteSpace=wrap;html=1;labelBackgroundColor=none;fillColor=#09555B;strokeColor=#BAC8D3;fontColor=#EEEEEE;movable=1;resizable=1;rotatable=1;deletable=1;editable=1;locked=0;connectable=1;" vertex="1" parent="1">
          <mxGeometry x="1440" y="100" width="400" height="920" as="geometry" />
        </mxCell>
        <mxCell id="9n4CZVubbMvw4Wd5ldIc-92" value="&lt;b&gt;Administration:&lt;/b&gt;" style="text;strokeColor=none;fillColor=none;align=left;verticalAlign=middle;spacingLeft=4;spacingRight=4;overflow=hidden;points=[[0,0.5],[1,0.5]];portConstraint=eastwest;rotatable=1;whiteSpace=wrap;html=1;labelBackgroundColor=none;fontColor=#EEEEEE;movable=1;resizable=1;deletable=1;editable=1;locked=0;connectable=1;" vertex="1" parent="9n4CZVubbMvw4Wd5ldIc-91">
          <mxGeometry y="30" width="400" height="30" as="geometry" />
        </mxCell>
        <mxCell id="9n4CZVubbMvw4Wd5ldIc-93" value="&lt;span style=&quot;white-space: pre;&quot;&gt;&#x9;&lt;/span&gt;&lt;b&gt;&lt;font face=&quot;Courier New&quot;&gt;get all reviews&lt;/font&gt;&lt;/b&gt;: fetches all reviews&lt;div&gt;&lt;br&gt;&lt;/div&gt;&lt;div&gt;&lt;span style=&quot;white-space: pre;&quot;&gt;&#x9;&lt;/span&gt;=&amp;gt; GET /reviews&lt;/div&gt;" style="text;strokeColor=none;fillColor=none;align=left;verticalAlign=middle;spacingLeft=4;spacingRight=4;overflow=hidden;points=[[0,0.5],[1,0.5]];portConstraint=eastwest;rotatable=1;whiteSpace=wrap;html=1;labelBackgroundColor=none;fontColor=#EEEEEE;fontFamily=Helvetica;movable=1;resizable=1;deletable=1;editable=1;locked=0;connectable=1;" vertex="1" parent="9n4CZVubbMvw4Wd5ldIc-91">
          <mxGeometry y="60" width="400" height="80" as="geometry" />
        </mxCell>
        <mxCell id="9n4CZVubbMvw4Wd5ldIc-94" value="&lt;span style=&quot;white-space: pre;&quot;&gt;&#x9;&lt;/span&gt;&lt;b&gt;&lt;font face=&quot;Courier New&quot;&gt;get a review&lt;/font&gt;&lt;/b&gt;: fetches a review by ID&lt;div&gt;&lt;br&gt;&lt;/div&gt;&lt;div&gt;&lt;span style=&quot;white-space: pre;&quot;&gt;&#x9;&lt;/span&gt;=&amp;gt; GET&amp;nbsp;&lt;span style=&quot;background-color: initial;&quot;&gt;/reviews/:id&lt;/span&gt;&lt;/div&gt;" style="text;strokeColor=none;fillColor=none;align=left;verticalAlign=middle;spacingLeft=4;spacingRight=4;overflow=hidden;points=[[0,0.5],[1,0.5]];portConstraint=eastwest;rotatable=1;whiteSpace=wrap;html=1;labelBackgroundColor=none;fontColor=#EEEEEE;fontFamily=Helvetica;movable=1;resizable=1;deletable=1;editable=1;locked=0;connectable=1;" vertex="1" parent="9n4CZVubbMvw4Wd5ldIc-91">
          <mxGeometry y="140" width="400" height="80" as="geometry" />
        </mxCell>
        <mxCell id="9n4CZVubbMvw4Wd5ldIc-95" value="&lt;span style=&quot;white-space: pre;&quot;&gt;&#x9;&lt;/span&gt;&lt;b&gt;&lt;font face=&quot;Courier New&quot;&gt;create a review&lt;/font&gt;&lt;/b&gt;: creates a review document with required fields&lt;div&gt;&lt;br&gt;&lt;/div&gt;&lt;div&gt;&lt;span style=&quot;white-space: pre;&quot;&gt;&#x9;&lt;/span&gt;=&amp;gt; POST&amp;nbsp;&lt;span style=&quot;background-color: initial;&quot;&gt;/reviews&lt;/span&gt;&lt;/div&gt;" style="text;strokeColor=none;fillColor=none;align=left;verticalAlign=middle;spacingLeft=4;spacingRight=4;overflow=hidden;points=[[0,0.5],[1,0.5]];portConstraint=eastwest;rotatable=1;whiteSpace=wrap;html=1;labelBackgroundColor=none;fontColor=#EEEEEE;fontFamily=Helvetica;movable=1;resizable=1;deletable=1;editable=1;locked=0;connectable=1;" vertex="1" parent="9n4CZVubbMvw4Wd5ldIc-91">
          <mxGeometry y="220" width="400" height="80" as="geometry" />
        </mxCell>
        <mxCell id="9n4CZVubbMvw4Wd5ldIc-96" value="&lt;span style=&quot;white-space: pre;&quot;&gt;&#x9;&lt;/span&gt;&lt;b&gt;&lt;font face=&quot;Courier New&quot;&gt;update a review&lt;/font&gt;&lt;/b&gt;: updates a review by ID&lt;div&gt;&lt;br&gt;&lt;/div&gt;&lt;div&gt;&lt;span style=&quot;white-space: pre;&quot;&gt;&#x9;&lt;/span&gt;=&amp;gt; PATCH&amp;nbsp;&lt;span style=&quot;background-color: initial;&quot;&gt;/reviews/:id&lt;/span&gt;&lt;/div&gt;" style="text;strokeColor=none;fillColor=none;align=left;verticalAlign=middle;spacingLeft=4;spacingRight=4;overflow=hidden;points=[[0,0.5],[1,0.5]];portConstraint=eastwest;rotatable=1;whiteSpace=wrap;html=1;labelBackgroundColor=none;fontColor=#EEEEEE;fontFamily=Helvetica;movable=1;resizable=1;deletable=1;editable=1;locked=0;connectable=1;" vertex="1" parent="9n4CZVubbMvw4Wd5ldIc-91">
          <mxGeometry y="300" width="400" height="80" as="geometry" />
        </mxCell>
        <mxCell id="9n4CZVubbMvw4Wd5ldIc-97" value="&lt;span style=&quot;white-space: pre;&quot;&gt;&#x9;&lt;/span&gt;&lt;b&gt;&lt;font face=&quot;Courier New&quot;&gt;delete a review&lt;/font&gt;&lt;/b&gt;: deletes a review document by ID&lt;div&gt;&lt;br&gt;&lt;/div&gt;&lt;div&gt;&lt;span style=&quot;white-space: pre;&quot;&gt;&#x9;&lt;/span&gt;=&amp;gt; DELETE&amp;nbsp;&lt;span style=&quot;background-color: initial;&quot;&gt;/reviews/:id&lt;/span&gt;&lt;/div&gt;" style="text;strokeColor=none;fillColor=none;align=left;verticalAlign=middle;spacingLeft=4;spacingRight=4;overflow=hidden;points=[[0,0.5],[1,0.5]];portConstraint=eastwest;rotatable=1;whiteSpace=wrap;html=1;labelBackgroundColor=none;fontColor=#EEEEEE;fontFamily=Helvetica;movable=1;resizable=1;deletable=1;editable=1;locked=0;connectable=1;" vertex="1" parent="9n4CZVubbMvw4Wd5ldIc-91">
          <mxGeometry y="380" width="400" height="80" as="geometry" />
        </mxCell>
        <mxCell id="9n4CZVubbMvw4Wd5ldIc-98" value="&lt;b&gt;Patient:&lt;/b&gt;" style="text;strokeColor=none;fillColor=none;align=left;verticalAlign=middle;spacingLeft=4;spacingRight=4;overflow=hidden;points=[[0,0.5],[1,0.5]];portConstraint=eastwest;rotatable=1;whiteSpace=wrap;html=1;labelBackgroundColor=none;fontColor=#EEEEEE;fontFamily=Helvetica;movable=1;resizable=1;deletable=1;editable=1;locked=0;connectable=1;" vertex="1" parent="9n4CZVubbMvw4Wd5ldIc-91">
          <mxGeometry y="460" width="400" height="30" as="geometry" />
        </mxCell>
        <mxCell id="9n4CZVubbMvw4Wd5ldIc-99" value="&lt;span style=&quot;white-space: pre;&quot;&gt;&#x9;&lt;/span&gt;&lt;b&gt;&lt;font face=&quot;Courier New&quot;&gt;get a review on a visit&lt;/font&gt;&lt;/b&gt;: fetches a patient&#39;s review on a visit by visit ID&lt;div&gt;&lt;br&gt;&lt;/div&gt;&lt;div&gt;&lt;span style=&quot;white-space: pre;&quot;&gt;&#x9;&lt;/span&gt;=&amp;gt; GET /visits/:id/review&lt;/div&gt;" style="text;strokeColor=none;fillColor=none;align=left;verticalAlign=middle;spacingLeft=4;spacingRight=4;overflow=hidden;points=[[0,0.5],[1,0.5]];portConstraint=eastwest;rotatable=1;whiteSpace=wrap;html=1;labelBackgroundColor=none;fontColor=#EEEEEE;fontFamily=Helvetica;movable=1;resizable=1;deletable=1;editable=1;locked=0;connectable=1;" vertex="1" parent="9n4CZVubbMvw4Wd5ldIc-91">
          <mxGeometry y="490" width="400" height="80" as="geometry" />
        </mxCell>
        <mxCell id="9n4CZVubbMvw4Wd5ldIc-100" value="&lt;span style=&quot;white-space: pre;&quot;&gt;&#x9;&lt;/span&gt;&lt;b&gt;&lt;font face=&quot;Courier New&quot;&gt;write a review on a visit&lt;/font&gt;&lt;/b&gt;: creates a review on a successful-closed visit&lt;div&gt;&lt;br&gt;&lt;/div&gt;&lt;div&gt;&lt;span style=&quot;white-space: pre;&quot;&gt;&#x9;&lt;/span&gt;=&amp;gt; POST&amp;nbsp;&lt;span style=&quot;background-color: initial;&quot;&gt;/visits/:id/review&lt;/span&gt;&lt;/div&gt;" style="text;strokeColor=none;fillColor=none;align=left;verticalAlign=middle;spacingLeft=4;spacingRight=4;overflow=hidden;points=[[0,0.5],[1,0.5]];portConstraint=eastwest;rotatable=1;whiteSpace=wrap;html=1;labelBackgroundColor=none;fontColor=#EEEEEE;fontFamily=Helvetica;movable=1;resizable=1;deletable=1;editable=1;locked=0;connectable=1;" vertex="1" parent="9n4CZVubbMvw4Wd5ldIc-91">
          <mxGeometry y="570" width="400" height="80" as="geometry" />
        </mxCell>
        <mxCell id="9n4CZVubbMvw4Wd5ldIc-101" value="&lt;span style=&quot;white-space: pre;&quot;&gt;&#x9;&lt;/span&gt;&lt;b&gt;&lt;font face=&quot;Courier New&quot;&gt;update a review on a visit&lt;/font&gt;&lt;/b&gt;: updates a patient&#39;s review on a visit&lt;div&gt;&lt;br&gt;&lt;/div&gt;&lt;div&gt;&lt;span style=&quot;white-space: pre;&quot;&gt;&#x9;&lt;/span&gt;=&amp;gt; PATCH&amp;nbsp;&lt;span style=&quot;background-color: initial;&quot;&gt;/visits/:id/review&lt;/span&gt;&lt;/div&gt;" style="text;strokeColor=none;fillColor=none;align=left;verticalAlign=middle;spacingLeft=4;spacingRight=4;overflow=hidden;points=[[0,0.5],[1,0.5]];portConstraint=eastwest;rotatable=1;whiteSpace=wrap;html=1;labelBackgroundColor=none;fontColor=#EEEEEE;fontFamily=Helvetica;movable=1;resizable=1;deletable=1;editable=1;locked=0;connectable=1;" vertex="1" parent="9n4CZVubbMvw4Wd5ldIc-91">
          <mxGeometry y="650" width="400" height="80" as="geometry" />
        </mxCell>
        <mxCell id="9n4CZVubbMvw4Wd5ldIc-102" value="&lt;span style=&quot;white-space: pre;&quot;&gt;&#x9;&lt;/span&gt;&lt;b&gt;&lt;font face=&quot;Courier New&quot;&gt;delete a review on a visit&lt;/font&gt;&lt;/b&gt;: deletes a patient&#39;s review on a visit&lt;div&gt;&lt;br&gt;&lt;/div&gt;&lt;div&gt;&lt;span style=&quot;white-space: pre;&quot;&gt;&#x9;&lt;/span&gt;=&amp;gt; DELETE&amp;nbsp;&lt;span style=&quot;background-color: initial;&quot;&gt;/visits/:id/review&lt;/span&gt;&lt;/div&gt;" style="text;strokeColor=none;fillColor=none;align=left;verticalAlign=middle;spacingLeft=4;spacingRight=4;overflow=hidden;points=[[0,0.5],[1,0.5]];portConstraint=eastwest;rotatable=1;whiteSpace=wrap;html=1;labelBackgroundColor=none;fontColor=#EEEEEE;fontFamily=Helvetica;movable=1;resizable=1;deletable=1;editable=1;locked=0;connectable=1;" vertex="1" parent="9n4CZVubbMvw4Wd5ldIc-91">
          <mxGeometry y="730" width="400" height="80" as="geometry" />
        </mxCell>
        <mxCell id="9n4CZVubbMvw4Wd5ldIc-103" value="&lt;b&gt;All Users:&lt;/b&gt;" style="text;strokeColor=none;fillColor=none;align=left;verticalAlign=middle;spacingLeft=4;spacingRight=4;overflow=hidden;points=[[0,0.5],[1,0.5]];portConstraint=eastwest;rotatable=1;whiteSpace=wrap;html=1;labelBackgroundColor=none;fontColor=#EEEEEE;fontFamily=Helvetica;movable=1;resizable=1;deletable=1;editable=1;locked=0;connectable=1;" vertex="1" parent="9n4CZVubbMvw4Wd5ldIc-91">
          <mxGeometry y="810" width="400" height="30" as="geometry" />
        </mxCell>
        <mxCell id="9n4CZVubbMvw4Wd5ldIc-104" value="&lt;span style=&quot;white-space: pre;&quot;&gt;&#x9;&lt;/span&gt;&lt;b&gt;&lt;font face=&quot;Courier New&quot;&gt;get all reviews on a doctor&lt;/font&gt;&lt;/b&gt;: fetches all reviews related to a doctor by doctor ID&lt;div&gt;&lt;br&gt;&lt;/div&gt;&lt;div&gt;&lt;span style=&quot;white-space: pre;&quot;&gt;&#x9;&lt;/span&gt;=&amp;gt; GET /reviews/doctor/:doctorID&lt;/div&gt;" style="text;strokeColor=none;fillColor=none;align=left;verticalAlign=middle;spacingLeft=4;spacingRight=4;overflow=hidden;points=[[0,0.5],[1,0.5]];portConstraint=eastwest;rotatable=1;whiteSpace=wrap;html=1;labelBackgroundColor=none;fontColor=#EEEEEE;fontFamily=Helvetica;movable=1;resizable=1;deletable=1;editable=1;locked=0;connectable=1;" vertex="1" parent="9n4CZVubbMvw4Wd5ldIc-91">
          <mxGeometry y="840" width="400" height="80" as="geometry" />
        </mxCell>
        <mxCell id="9n4CZVubbMvw4Wd5ldIc-105" value="DRUG" style="swimlane;fontStyle=0;childLayout=stackLayout;horizontal=1;startSize=30;horizontalStack=0;resizeParent=1;resizeParentMax=0;resizeLast=0;collapsible=1;marginBottom=0;whiteSpace=wrap;html=1;labelBackgroundColor=none;fillColor=#09555B;strokeColor=#BAC8D3;fontColor=#EEEEEE;movable=1;resizable=1;rotatable=1;deletable=1;editable=1;locked=0;connectable=1;" vertex="1" parent="1">
          <mxGeometry x="1920" y="100" width="400" height="650" as="geometry" />
        </mxCell>
        <mxCell id="9n4CZVubbMvw4Wd5ldIc-106" value="&lt;b&gt;Administration:&lt;/b&gt;" style="text;strokeColor=none;fillColor=none;align=left;verticalAlign=middle;spacingLeft=4;spacingRight=4;overflow=hidden;points=[[0,0.5],[1,0.5]];portConstraint=eastwest;rotatable=1;whiteSpace=wrap;html=1;labelBackgroundColor=none;fontColor=#EEEEEE;movable=1;resizable=1;deletable=1;editable=1;locked=0;connectable=1;" vertex="1" parent="9n4CZVubbMvw4Wd5ldIc-105">
          <mxGeometry y="30" width="400" height="30" as="geometry" />
        </mxCell>
        <mxCell id="9n4CZVubbMvw4Wd5ldIc-107" value="&lt;span style=&quot;white-space: pre;&quot;&gt;&#x9;&lt;/span&gt;&lt;b&gt;&lt;font face=&quot;Courier New&quot;&gt;get all drugs&lt;/font&gt;&lt;/b&gt;: fetches all drugs&lt;div&gt;&lt;br&gt;&lt;/div&gt;&lt;div&gt;&lt;span style=&quot;white-space: pre;&quot;&gt;&#x9;&lt;/span&gt;=&amp;gt; GET /drugs&lt;/div&gt;" style="text;strokeColor=none;fillColor=none;align=left;verticalAlign=middle;spacingLeft=4;spacingRight=4;overflow=hidden;points=[[0,0.5],[1,0.5]];portConstraint=eastwest;rotatable=1;whiteSpace=wrap;html=1;labelBackgroundColor=none;fontColor=#EEEEEE;fontFamily=Helvetica;movable=1;resizable=1;deletable=1;editable=1;locked=0;connectable=1;" vertex="1" parent="9n4CZVubbMvw4Wd5ldIc-105">
          <mxGeometry y="60" width="400" height="80" as="geometry" />
        </mxCell>
        <mxCell id="9n4CZVubbMvw4Wd5ldIc-108" value="&lt;span style=&quot;white-space: pre;&quot;&gt;&#x9;&lt;/span&gt;&lt;b&gt;&lt;font face=&quot;Courier New&quot;&gt;get a drug&lt;/font&gt;&lt;/b&gt;: fetches a drug by ID&lt;div&gt;&lt;br&gt;&lt;/div&gt;&lt;div&gt;&lt;span style=&quot;white-space: pre;&quot;&gt;&#x9;&lt;/span&gt;=&amp;gt; GET&amp;nbsp;&lt;span style=&quot;background-color: initial;&quot;&gt;/drugs/:id&lt;/span&gt;&lt;/div&gt;" style="text;strokeColor=none;fillColor=none;align=left;verticalAlign=middle;spacingLeft=4;spacingRight=4;overflow=hidden;points=[[0,0.5],[1,0.5]];portConstraint=eastwest;rotatable=1;whiteSpace=wrap;html=1;labelBackgroundColor=none;fontColor=#EEEEEE;fontFamily=Helvetica;movable=1;resizable=1;deletable=1;editable=1;locked=0;connectable=1;" vertex="1" parent="9n4CZVubbMvw4Wd5ldIc-105">
          <mxGeometry y="140" width="400" height="80" as="geometry" />
        </mxCell>
        <mxCell id="9n4CZVubbMvw4Wd5ldIc-109" value="&lt;span style=&quot;white-space: pre;&quot;&gt;&#x9;&lt;/span&gt;&lt;b&gt;&lt;font face=&quot;Courier New&quot;&gt;create a drug&lt;/font&gt;&lt;/b&gt;: creates a drug document with required fields&lt;div&gt;&lt;br&gt;&lt;/div&gt;&lt;div&gt;&lt;span style=&quot;white-space: pre;&quot;&gt;&#x9;&lt;/span&gt;=&amp;gt; POST /drugs&lt;/div&gt;" style="text;strokeColor=none;fillColor=none;align=left;verticalAlign=middle;spacingLeft=4;spacingRight=4;overflow=hidden;points=[[0,0.5],[1,0.5]];portConstraint=eastwest;rotatable=1;whiteSpace=wrap;html=1;labelBackgroundColor=none;fontColor=#EEEEEE;fontFamily=Helvetica;movable=1;resizable=1;deletable=1;editable=1;locked=0;connectable=1;" vertex="1" parent="9n4CZVubbMvw4Wd5ldIc-105">
          <mxGeometry y="220" width="400" height="80" as="geometry" />
        </mxCell>
        <mxCell id="9n4CZVubbMvw4Wd5ldIc-110" value="&lt;span style=&quot;white-space: pre;&quot;&gt;&#x9;&lt;/span&gt;&lt;b&gt;&lt;font face=&quot;Courier New&quot;&gt;update a drug&lt;/font&gt;&lt;/b&gt;: updates a drug by ID&lt;div&gt;&lt;br&gt;&lt;/div&gt;&lt;div&gt;&lt;span style=&quot;white-space: pre;&quot;&gt;&#x9;&lt;/span&gt;=&amp;gt; PATCH /drugs/:id&lt;/div&gt;" style="text;strokeColor=none;fillColor=none;align=left;verticalAlign=middle;spacingLeft=4;spacingRight=4;overflow=hidden;points=[[0,0.5],[1,0.5]];portConstraint=eastwest;rotatable=1;whiteSpace=wrap;html=1;labelBackgroundColor=none;fontColor=#EEEEEE;fontFamily=Helvetica;movable=1;resizable=1;deletable=1;editable=1;locked=0;connectable=1;" vertex="1" parent="9n4CZVubbMvw4Wd5ldIc-105">
          <mxGeometry y="300" width="400" height="80" as="geometry" />
        </mxCell>
        <mxCell id="9n4CZVubbMvw4Wd5ldIc-111" value="&lt;span style=&quot;white-space: pre;&quot;&gt;&#x9;&lt;/span&gt;&lt;b&gt;&lt;font face=&quot;Courier New&quot;&gt;delete a drug&lt;/font&gt;&lt;/b&gt;: deletes a drug document by ID&lt;div&gt;&lt;br&gt;&lt;/div&gt;&lt;div&gt;&lt;span style=&quot;white-space: pre;&quot;&gt;&#x9;&lt;/span&gt;=&amp;gt; DELETE /drugs/:id&lt;/div&gt;" style="text;strokeColor=none;fillColor=none;align=left;verticalAlign=middle;spacingLeft=4;spacingRight=4;overflow=hidden;points=[[0,0.5],[1,0.5]];portConstraint=eastwest;rotatable=1;whiteSpace=wrap;html=1;labelBackgroundColor=none;fontColor=#EEEEEE;fontFamily=Helvetica;movable=1;resizable=1;deletable=1;editable=1;locked=0;connectable=1;" vertex="1" parent="9n4CZVubbMvw4Wd5ldIc-105">
          <mxGeometry y="380" width="400" height="80" as="geometry" />
        </mxCell>
        <mxCell id="9n4CZVubbMvw4Wd5ldIc-112" value="&lt;b&gt;Doctor:&lt;/b&gt;" style="text;strokeColor=none;fillColor=none;align=left;verticalAlign=middle;spacingLeft=4;spacingRight=4;overflow=hidden;points=[[0,0.5],[1,0.5]];portConstraint=eastwest;rotatable=1;whiteSpace=wrap;html=1;labelBackgroundColor=none;fontColor=#EEEEEE;fontFamily=Helvetica;movable=1;resizable=1;deletable=1;editable=1;locked=0;connectable=1;" vertex="1" parent="9n4CZVubbMvw4Wd5ldIc-105">
          <mxGeometry y="460" width="400" height="30" as="geometry" />
        </mxCell>
        <mxCell id="9n4CZVubbMvw4Wd5ldIc-113" value="&lt;span style=&quot;white-space: pre;&quot;&gt;&#x9;&lt;/span&gt;&lt;b&gt;&lt;font face=&quot;Courier New&quot;&gt;get all drugs&lt;/font&gt;&lt;/b&gt;: fetches all drugs (filtering included)&lt;div&gt;&lt;br&gt;&lt;/div&gt;&lt;div&gt;&lt;span style=&quot;white-space: pre;&quot;&gt;&#x9;&lt;/span&gt;=&amp;gt; GET /drugs&lt;/div&gt;" style="text;strokeColor=none;fillColor=none;align=left;verticalAlign=middle;spacingLeft=4;spacingRight=4;overflow=hidden;points=[[0,0.5],[1,0.5]];portConstraint=eastwest;rotatable=1;whiteSpace=wrap;html=1;labelBackgroundColor=none;fontColor=#EEEEEE;fontFamily=Helvetica;movable=1;resizable=1;deletable=1;editable=1;locked=0;connectable=1;" vertex="1" parent="9n4CZVubbMvw4Wd5ldIc-105">
          <mxGeometry y="490" width="400" height="80" as="geometry" />
        </mxCell>
        <mxCell id="9n4CZVubbMvw4Wd5ldIc-114" value="&lt;span style=&quot;white-space: pre;&quot;&gt;&#x9;&lt;/span&gt;&lt;b&gt;&lt;font face=&quot;Courier New&quot;&gt;get a drug&lt;/font&gt;&lt;/b&gt;: fetches a drug by ID&lt;div&gt;&lt;br&gt;&lt;/div&gt;&lt;div&gt;&lt;span style=&quot;white-space: pre;&quot;&gt;&#x9;&lt;/span&gt;=&amp;gt;&amp;nbsp;&lt;span style=&quot;background-color: initial;&quot;&gt;GET /drugs/:id&lt;/span&gt;&lt;/div&gt;" style="text;strokeColor=none;fillColor=none;align=left;verticalAlign=middle;spacingLeft=4;spacingRight=4;overflow=hidden;points=[[0,0.5],[1,0.5]];portConstraint=eastwest;rotatable=1;whiteSpace=wrap;html=1;labelBackgroundColor=none;fontColor=#EEEEEE;fontFamily=Helvetica;movable=1;resizable=1;deletable=1;editable=1;locked=0;connectable=1;" vertex="1" parent="9n4CZVubbMvw4Wd5ldIc-105">
          <mxGeometry y="570" width="400" height="80" as="geometry" />
        </mxCell>
      </root>
    </mxGraphModel>
  </diagram>
</mxfile>
